<svg version="1.2" xmlns="http://www.w3.org/2000/svg" viewBox="0 0 1185 318" width="1185" height="318">
	<style>
		.s0 { fill: #5b47fb } 
	</style>
	<path id="fasten" class="s0" aria-label="fasten"  d="m25.6 314h68.4v-166.4h36.8v-56.8h-36.8v-2c0-23.6 9.2-31.6 35.6-30v-58c-68-3.6-104 25.2-104 83.6v6.4h-24.8v56.8h24.8zm102.6-112c0 70.4 43.6 115.2 98 115.2 33.2 0 56.8-15.2 69.2-34.8v31.6h68.4v-223.2h-68.4v31.6c-12-19.6-35.6-34.8-68.8-34.8-54.8 0-98.4 44-98.4 114.4zm167.2 0.4c0 35.6-22.8 55.2-48.8 55.2-25.6 0-48.8-20-48.8-55.6 0-35.6 23.2-54.8 48.8-54.8 26 0 48.8 19.6 48.8 55.2zm278.6 46.8c-1.2-83.2-122-58-122-93.6 0-10.8 8.8-17.2 24.8-17.2 19.2 0 30.8 10 32.8 25.2h63.2c-4.4-44-36.4-76-94-76-58.4 0-90.8 31.2-90.8 69.2 0 82 121.6 56 121.6 92 0 10-9.2 18-26.8 18-18.8 0-32.8-10.4-34.4-26h-67.6c3.2 43.2 43.2 76.4 102.8 76.4 56 0 90.4-29.2 90.4-68zm31.6-12.8c0 58 32.4 77.6 78.8 77.6h34.8v-58h-24.4c-15.2 0-20.8-5.6-20.8-18.8v-89.6h44.8v-56.8h-44.8v-54.4h-68.4v54.4h-27.2v56.8h27.2zm229.6-94c22.8 0 42 14 42 38.4h-85.6c4-24.8 21.2-38.4 43.6-38.4zm106.8 97.6h-72.8c-5.6 12-16.4 21.6-35.6 21.6-22 0-40-13.6-42.4-42.8h154.8c0.8-6.8 1.2-13.6 1.2-20 0-68-46-111.2-111.2-111.2-66.4 0-112.8 44-112.8 114.8 0 70.8 47.2 114.8 112.8 114.8 55.6 0 95.2-33.6 106-77.2zm174.8 74h68v-130.4c0-60-34.4-95.2-86-95.2-30 0-54 13.2-67.6 32v-29.6h-68.4v223.2h68.4v-121.2c0-30.4 16.8-47.2 42.8-47.2 26 0 42.8 16.8 42.8 47.2z"/>
</svg>